<svg width="48" height="48" viewBox="0 0 48 48" fill="none" xmlns="http://www.w3.org/2000/svg">
  <path d="M48 24C48 37.2548 37.2548 48 24 48C10.7452 48 0 37.2548 0 24C0 10.7452 10.7452 0 24 0C37.2548 0 48 10.7452 48 24Z" fill="#F27220"/>
  <path d="M44.8002 24C44.8002 35.4875 35.4877 44.8 24.0002 44.8C12.5127 44.8 3.2002 35.4875 3.2002 24C3.2002 12.5124 12.5127 3.19995 24.0002 3.19995C35.4877 3.19995 44.8002 12.5124 44.8002 24Z" fill="#FFFAFA"/>
  <path d="M16.6238 22.0103C17.199 20.0499 17.6652 19.0165 17.6652 18.4002C17.6652 17.6549 16.644 16.9096 16.644 17.6549C16.644 18.1801 15.8987 21.3945 15.4584 23.2471C15.303 23.9015 15.8218 24.5328 16.4941 24.5522C18.3217 24.605 21.5077 24.9405 22.8537 26.5679C23.0788 26.8401 23.4781 27.0954 23.3465 26.7677C23.2799 26.6021 23.1705 26.352 23.0073 25.9777C22.5189 24.8577 19.9048 23.6824 17.6559 23.4087C16.9725 23.3255 16.4299 22.6709 16.6238 22.0103Z" fill="#F27220"/>
  <path d="M18.6193 27.1721C16.9118 27.5338 15.2977 28.0723 14.3884 28.411C13.9174 28.5865 13.7287 28.3971 13.8601 27.9003L15.4354 21.9435L15.769 20.4008C15.774 20.3777 15.7765 20.3544 15.7765 20.3314C15.7765 19.9799 15.2966 19.9603 15.1939 20.3076L12.7303 28.6364C12.4534 29.5725 13.2419 30.3577 14.1406 30.0525C15.2711 29.6685 16.7486 29.1892 18.2509 28.7657C19.5529 28.3986 19.9322 26.894 18.6193 27.1721Z" fill="#F27220"/>
  <path d="M30.6038 22.0103C30.0285 20.0499 29.5623 19.0165 29.5623 18.4002C29.5623 17.6549 30.5836 16.9096 30.5836 17.6549C30.5836 18.1801 31.3289 21.3945 31.7691 23.2471C31.9246 23.9015 31.4057 24.5328 30.7334 24.5522C28.9058 24.605 25.7198 24.9405 24.3739 26.5679C24.1487 26.8401 23.7494 27.0954 23.8811 26.7677C23.9433 26.6129 24.043 26.3842 24.1891 26.0492L24.2202 25.9777C24.7086 24.8577 27.3228 23.6824 29.5716 23.4087C30.255 23.3255 30.7976 22.6709 30.6038 22.0103Z" fill="#F27220"/>
  <path d="M28.4964 27.119C30.2039 27.4807 31.818 28.0192 32.7273 28.3579C33.1983 28.5334 33.387 28.344 33.2556 27.8472L31.6804 21.8904L31.3467 20.3477C31.3418 20.3246 31.3392 20.3013 31.3392 20.2783C31.3392 19.9268 31.8191 19.9072 31.9218 20.2545L34.3854 28.5833C34.6623 29.5194 33.8738 30.3046 32.9751 29.9994C31.8446 29.6154 30.3671 29.1361 28.8648 28.7126C27.5629 28.3455 27.1835 26.8409 28.4964 27.119Z" fill="#F27220"/>
  <path d="M18.7241 29.6333C16.2162 29.4889 14.958 30.5622 14.3764 31.3559C14.0497 31.8017 14.1028 32.0412 14.603 31.8845C16.3067 31.3508 20.4745 30.2391 22.2671 30.1404C24.6951 30.0067 22.6485 29.8593 18.7241 29.6333Z" fill="#F27220"/>
  <path d="M27.8444 29.7683C30.3566 29.7009 31.6 30.8153 32.1699 31.6269C32.4889 32.0812 32.4348 32.3187 31.9402 32.1477C30.2478 31.5626 26.0883 30.3204 24.2953 30.1664C21.8697 29.9582 23.9178 29.8737 27.8444 29.7683Z" fill="#F27220"/>
  <ellipse cx="23.6825" cy="14.4159" rx="2.40648" ry="2.40648" transform="rotate(-0.223799 23.6825 14.4159)" fill="#66B6C2"/>
  <path d="M23.4072 21.6515C21.8377 17.7895 18.2201 14.4742 14.8667 15.0695C14.5035 15.134 14.2666 15.4694 14.2666 15.8383C14.2666 16.4217 14.8436 16.8282 15.415 16.7103C19.9868 15.767 21.4587 19.6039 23.4072 24C25.3754 19.1543 27.0455 15.7261 31.1215 16.67C31.6837 16.8002 32.2666 16.4066 32.2666 15.8296C32.2666 15.4674 32.03 15.1393 31.6717 15.0862C28.5378 14.6222 25.2278 17.8024 23.4072 21.6515Z" fill="#66B6C2"/>
</svg>
